<svg width="15" height="33" viewBox="0 0 15 33" fill="none" xmlns="http://www.w3.org/2000/svg">
<path d="M6.38032 17.6708C1.14946 10.2494 0.178711 9.48829 0.178711 6.76178C0.178711 3.02703 3.27298 0 7.09069 0C10.9084 0 14.0027 3.02703 14.0027 6.76178C14.0027 9.48829 13.0319 10.2479 7.80106 17.6678C7.72167 17.7797 7.61576 17.8712 7.49243 17.9345C7.36909 17.9978 7.23194 18.031 7.09268 18.0313C6.95335 18.0316 6.81608 17.9989 6.69244 17.9362C6.56881 17.8734 6.46254 17.7824 6.38261 17.6708L6.38104 17.6678L6.38032 17.6708ZM7.09069 9.57916C7.8545 9.57916 8.58705 9.28237 9.12714 8.75399C9.66724 8.22562 9.9707 7.509 9.9707 6.76178C9.9707 6.01457 9.66724 5.29794 9.12714 4.76957C8.58705 4.2412 7.8545 3.94437 7.09069 3.94437C6.32689 3.94437 5.59433 4.2412 5.05423 4.76957C4.51413 5.29794 4.2107 6.01457 4.2107 6.76178C4.2107 7.509 4.51413 8.22562 5.05423 8.75399C5.59433 9.28237 6.32689 9.57916 7.09069 9.57916Z" fill="#00A3FF"/>
<path d="M8.39179 31.2743L4.44297 27.3254H13.2604V25.4858H4.44297L8.39179 21.537L7.09116 20.2363L0.921875 26.4056L7.09116 32.5749L8.39179 31.2743Z" fill="#00A3FF"/>
</svg>
