<svg width="28" height="28" viewBox="0 0 28 28" fill="none" xmlns="http://www.w3.org/2000/svg">
<path d="M12 0C9.62663 0 7.30655 0.703788 5.33316 2.02236C3.35977 3.34094 1.8217 5.21509 0.913451 7.4078C0.00519943 9.60051 -0.232441 12.0133 0.230582 14.3411C0.693605 16.6689 1.83649 18.8071 3.51472 20.4853C5.19295 22.1635 7.33115 23.3064 9.65892 23.7694C11.9867 24.2324 14.3995 23.9948 16.5922 23.0866C18.7849 22.1783 20.6591 20.6402 21.9776 18.6668C23.2962 16.6935 24 14.3734 24 12C24 8.8174 22.7357 5.76516 20.4853 3.51472C18.2349 1.26428 15.1826 0 12 0V0ZM12 21.91C10.0184 21.9099 8.08145 21.3211 6.43506 20.2182C4.78868 19.1154 3.50707 17.5483 2.75291 15.7158C1.99875 13.8832 1.80604 11.868 2.19925 9.92576C2.59245 7.98353 3.55384 6.20192 4.96138 4.80704C6.36892 3.41217 8.15916 2.46693 10.1049 2.0913C12.0506 1.71567 14.064 1.92659 15.8896 2.69729C17.7152 3.46798 19.2707 4.7637 20.3586 6.41999C21.4465 8.07628 22.0178 10.0185 22 12C21.9763 14.6365 20.9122 17.157 19.0394 19.013C17.1666 20.8689 14.6367 21.9101 12 21.91V21.91Z" fill="white"/>
<path d="M27.7104 25.69L22.5404 20.52C22.1144 21.0471 21.6497 21.5418 21.1504 22L26.3004 27.15C26.4917 27.3138 26.7378 27.3995 26.9894 27.3897C27.2411 27.38 27.4799 27.2757 27.658 27.0976C27.836 26.9195 27.9404 26.6807 27.9501 26.4291C27.9598 26.1774 27.8742 25.9313 27.7104 25.74V25.69Z" fill="white"/>
</svg>
