<svg width="16" height="15" viewBox="0 0 16 15" fill="none" xmlns="http://www.w3.org/2000/svg">
<path fill-rule="evenodd" clip-rule="evenodd" d="M9.50929 1.79997C9.34765 1.49222 9.09421 1.23249 8.77817 1.0507C8.46212 0.868913 8.09633 0.772461 7.72294 0.772461C7.34955 0.772461 6.98376 0.868913 6.66771 1.0507C6.35166 1.23249 6.09822 1.49222 5.93659 1.79997L0.235452 12.0535C-0.446634 13.2776 0.415281 14.9032 2.0211 14.9032H13.4241C15.0306 14.9032 15.8911 13.2783 15.2104 12.0535L9.50929 1.79997ZM7.72294 5.2694C7.90924 5.2694 8.08791 5.33707 8.21965 5.45751C8.35139 5.57796 8.42539 5.74132 8.42539 5.91165V9.1229C8.42539 9.29324 8.35139 9.4566 8.21965 9.57704C8.08791 9.69749 7.90924 9.76515 7.72294 9.76515C7.53663 9.76515 7.35796 9.69749 7.22623 9.57704C7.09449 9.4566 7.02048 9.29324 7.02048 9.1229V5.91165C7.02048 5.74132 7.09449 5.57796 7.22623 5.45751C7.35796 5.33707 7.53663 5.2694 7.72294 5.2694V5.2694ZM7.72294 10.7285C7.90924 10.7285 8.08791 10.7962 8.21965 10.9166C8.35139 11.0371 8.42539 11.2004 8.42539 11.3708V11.6919C8.42539 11.8622 8.35139 12.0256 8.21965 12.146C8.08791 12.2665 7.90924 12.3342 7.72294 12.3342C7.53663 12.3342 7.35796 12.2665 7.22623 12.146C7.09449 12.0256 7.02048 11.8622 7.02048 11.6919V11.3708C7.02048 11.2004 7.09449 11.0371 7.22623 10.9166C7.35796 10.7962 7.53663 10.7285 7.72294 10.7285V10.7285Z" fill="#EF0D0D"/>
</svg>
