<svg width="23" height="30" viewBox="0 0 23 30" fill="none" xmlns="http://www.w3.org/2000/svg">
<path d="M10.3181 29.4003C1.61511 17.0527 0 15.7864 0 11.2501C0 5.0363 5.14817 0 11.5 0C17.8518 0 23 5.0363 23 11.2501C23 15.7864 21.3849 17.0502 12.6819 29.3953C12.5498 29.5815 12.3736 29.7337 12.1684 29.839C11.9632 29.9443 11.735 29.9995 11.5033 30C11.2715 30.0005 11.0431 29.9462 10.8374 29.8418C10.6317 29.7374 10.4549 29.5859 10.3219 29.4003L10.3193 29.3953L10.3181 29.4003ZM11.5 15.9376C12.7708 15.9376 13.9896 15.4438 14.8882 14.5647C15.7868 13.6856 16.2917 12.4933 16.2917 11.2501C16.2917 10.0069 15.7868 8.81459 14.8882 7.93551C13.9896 7.05642 12.7708 6.56256 11.5 6.56256C10.2292 6.56256 9.01039 7.05642 8.11178 7.93551C7.21317 8.81459 6.70833 10.0069 6.70833 11.2501C6.70833 12.4933 7.21317 13.6856 8.11178 14.5647C9.01039 15.4438 10.2292 15.9376 11.5 15.9376Z" fill="#FFC700"/>
</svg>
