<svg width="23" height="35" viewBox="0 0 23 35" fill="none" xmlns="http://www.w3.org/2000/svg">
<path d="M10.8364 17.6708C5.60551 10.2494 4.63477 9.48829 4.63477 6.76178C4.63477 3.02703 7.72903 0 11.5467 0C15.3644 0 18.4587 3.02703 18.4587 6.76178C18.4587 9.48829 17.488 10.2479 12.2571 17.6678C12.1777 17.7797 12.0718 17.8712 11.9485 17.9345C11.8251 17.9978 11.688 18.031 11.5487 18.0313C11.4094 18.0316 11.2721 17.9989 11.1485 17.9362C11.0249 17.8734 10.9186 17.7824 10.8387 17.6708L10.8371 17.6678L10.8364 17.6708ZM11.5467 9.57916C12.3106 9.57916 13.0431 9.28237 13.5832 8.75399C14.1233 8.22562 14.4268 7.509 14.4268 6.76178C14.4268 6.01457 14.1233 5.29794 13.5832 4.76957C13.0431 4.2412 12.3106 3.94437 11.5467 3.94437C10.7829 3.94437 10.0504 4.2412 9.51029 4.76957C8.97018 5.29794 8.66675 6.01457 8.66675 6.76178C8.66675 7.509 8.97018 8.22562 9.51029 8.75399C10.0504 9.28237 10.7829 9.57916 11.5467 9.57916Z" fill="#FFC700"/>
<path d="M14.8475 19.7394L18.7963 23.6882H9.97882V25.5279H18.7963L14.8475 29.4767L16.1481 30.7773L22.3174 24.6081L16.1481 18.4388L14.8475 19.7394Z" fill="#FFC700"/>
<path d="M8.24629 33.0711L4.29747 29.1223H13.1149V27.2827H4.29747L8.24629 23.3338L6.94565 22.0332L0.776367 28.2025L6.94565 34.3718L8.24629 33.0711Z" fill="#00A3FF"/>
</svg>
