<svg width="15" height="33" viewBox="0 0 15 33" fill="none" xmlns="http://www.w3.org/2000/svg">
<path d="M6.82368 17.6708C1.59282 10.2494 0.62207 9.48829 0.62207 6.76178C0.62207 3.02703 3.71634 0 7.53405 0C11.3517 0 14.446 3.02703 14.446 6.76178C14.446 9.48829 13.4753 10.2479 8.24442 17.6678C8.16503 17.7797 8.05912 17.8712 7.93579 17.9345C7.81245 17.9978 7.6753 18.031 7.53603 18.0313C7.39671 18.0316 7.25944 17.9989 7.1358 17.9362C7.01217 17.8734 6.9059 17.7824 6.82596 17.6708L6.8244 17.6678L6.82368 17.6708ZM7.53405 9.57916C8.29786 9.57916 9.03041 9.28237 9.5705 8.75399C10.1106 8.22562 10.4141 7.509 10.4141 6.76178C10.4141 6.01457 10.1106 5.29794 9.5705 4.76957C9.03041 4.2412 8.29786 3.94437 7.53405 3.94437C6.77025 3.94437 6.03769 4.2412 5.49759 4.76957C4.95749 5.29794 4.65406 6.01457 4.65406 6.76178C4.65406 7.509 4.95749 8.22562 5.49759 8.75399C6.03769 9.28237 6.77025 9.57916 7.53405 9.57916Z" fill="#FFC700"/>
<path d="M6.23321 21.5368L10.182 25.4856H1.36456V27.3253H10.182L6.23321 31.2741L7.53384 32.5747L13.7031 26.4054L7.53384 20.2361L6.23321 21.5368Z" fill="#FFC700"/>
</svg>
