<svg width="24" height="24" viewBox="0 0 24 24" fill="none" xmlns="http://www.w3.org/2000/svg">
<path d="M11.8604 0.616211C8.4418 0.616211 5.37813 2.1166 3.27578 4.48848L0.360352 1.57305V9.24121H8.02852L5.32422 6.53691C6.90098 4.68164 9.23242 3.49121 11.8604 3.49121C16.6221 3.49121 20.4854 7.35 20.4854 12.1162C20.4854 16.8824 16.6221 20.7412 11.8604 20.7412C9.47949 20.7412 7.32324 19.7754 5.75996 18.2166L3.72949 20.2471C5.81387 22.327 8.68887 23.6162 11.8604 23.6162C18.2123 23.6162 23.3604 18.4682 23.3604 12.1162C23.3604 5.76426 18.2123 0.616211 11.8604 0.616211ZM10.9035 5.40937V13.0775H16.6535V11.1594H12.8217V5.40937H10.9035V5.40937Z" fill="#FFC700"/>
</svg>
