<svg width="278" height="100" viewBox="0 0 278 100" fill="none" xmlns="http://www.w3.org/2000/svg">
<path d="M104.84 35L98.54 15.785L97.49 12.32V10.22H102.67L107.605 29.68H108.305L113.17 10.22H118.28V12.32L117.23 15.785L110.965 35H104.84ZM123.338 35.35C121.774 35.35 120.444 34.9533 119.348 34.16C118.274 33.3433 117.738 32.0833 117.738 30.38C117.738 28.5833 118.309 27.2183 119.453 26.285C120.596 25.3283 122.124 24.85 124.038 24.85C125.438 24.85 126.499 24.9667 127.223 25.2C127.969 25.4333 128.459 25.6083 128.693 25.725L128.938 25.515C128.938 24.815 128.879 24.1967 128.763 23.66C128.646 23.1233 128.378 22.715 127.958 22.435C127.538 22.1317 126.884 21.98 125.998 21.98C124.411 21.98 122.988 22.1083 121.728 22.365C120.491 22.6217 119.511 22.855 118.788 23.065V19.215C119.511 18.9583 120.608 18.725 122.078 18.515C123.548 18.2817 125.134 18.165 126.838 18.165C128.284 18.165 129.463 18.3633 130.373 18.76C131.306 19.1333 132.018 19.6467 132.508 20.3C133.021 20.9533 133.371 21.6767 133.558 22.47C133.768 23.24 133.873 24.01 133.873 24.78V29.435L134.573 32.97L133.873 35.035H129.288V33.32L128.938 33.145C128.751 33.3783 128.424 33.67 127.958 34.02C127.514 34.37 126.908 34.685 126.138 34.965C125.391 35.2217 124.458 35.35 123.338 35.35ZM125.263 31.465C126.266 31.465 127.048 31.3717 127.608 31.185C128.191 30.9983 128.634 30.8117 128.938 30.625V29.96C128.938 29.5167 128.669 29.0733 128.133 28.63C127.619 28.1867 126.768 27.965 125.578 27.965C124.691 27.965 124.038 28.14 123.618 28.49C123.198 28.84 122.988 29.2833 122.988 29.82C122.988 30.38 123.186 30.8 123.583 31.08C123.979 31.3367 124.539 31.465 125.263 31.465ZM140.378 16.73L136.633 12.985L140.378 9.24L144.088 12.985L140.378 16.73ZM137.928 35V23.415L137.193 20.615L137.893 18.48H142.793V35H137.928ZM160.686 35.35C159.59 35.35 158.528 35.07 157.501 34.51C156.498 33.95 155.67 33.0633 155.016 31.85C154.363 30.6367 154.036 29.05 154.036 27.09C154.036 24.92 154.386 23.1817 155.086 21.875C155.786 20.5683 156.673 19.6233 157.746 19.04C158.843 18.4333 159.94 18.13 161.036 18.13C162.203 18.13 163.113 18.235 163.766 18.445C164.42 18.6317 164.91 18.8067 165.236 18.97L164.886 12.355L165.236 10.255H170.171V29.4L170.871 32.9L170.171 35.035H165.586V33.32L165.236 33.145C165.236 33.145 165.061 33.3317 164.711 33.705C164.361 34.055 163.848 34.4167 163.171 34.79C162.495 35.1633 161.666 35.35 160.686 35.35ZM162.611 31.465L165.236 30.975V23.765C165.236 23.2283 165.015 22.8083 164.571 22.505C164.128 22.1783 163.475 22.015 162.611 22.015C161.725 22.015 161.036 22.2367 160.546 22.68C160.08 23.1 159.753 23.6717 159.566 24.395C159.38 25.095 159.286 25.8767 159.286 26.74C159.286 28.0233 159.543 29.1317 160.056 30.065C160.57 30.9983 161.421 31.465 162.611 31.465ZM181.53 35.35C180.014 35.35 178.66 35.0817 177.47 34.545C176.28 34.0083 175.347 33.11 174.67 31.85C173.994 30.59 173.655 28.8867 173.655 26.74C173.655 24.6633 174.017 22.995 174.74 21.735C175.464 20.475 176.42 19.565 177.61 19.005C178.8 18.4217 180.107 18.13 181.53 18.13C183.094 18.13 184.319 18.305 185.205 18.655C186.115 19.005 186.804 19.3433 187.27 19.67L189.02 25.235L188.32 27.405H178.52C178.66 28.6417 179.104 29.6333 179.85 30.38C180.597 31.1267 181.74 31.5 183.28 31.5C184.54 31.5 185.555 31.3483 186.325 31.045C187.119 30.7417 187.667 30.5083 187.97 30.345V33.985C187.27 34.3583 186.372 34.685 185.275 34.965C184.202 35.2217 182.954 35.35 181.53 35.35ZM178.485 25.165L183.735 24.465L183.21 21.875C183.047 21.7817 182.814 21.7117 182.51 21.665C182.23 21.6183 181.974 21.595 181.74 21.595C180.69 21.595 179.885 21.9683 179.325 22.715C178.765 23.4383 178.485 24.255 178.485 25.165ZM197.288 35.35C195.795 35.35 194.546 35.2217 193.543 34.965C192.563 34.7083 191.77 34.4167 191.163 34.09V29.96C192.003 30.4033 192.96 30.7883 194.033 31.115C195.13 31.4183 196.18 31.57 197.183 31.57C198.373 31.57 198.968 31.185 198.968 30.415C198.968 29.995 198.793 29.68 198.443 29.47C198.116 29.26 197.65 29.0733 197.043 28.91C196.46 28.7233 195.783 28.5017 195.013 28.245C193.683 27.7783 192.656 27.1833 191.933 26.46C191.21 25.7367 190.848 24.605 190.848 23.065C190.848 21.4083 191.42 20.1717 192.563 19.355C193.73 18.5383 195.258 18.13 197.148 18.13C197.918 18.13 198.571 18.1767 199.108 18.27C199.645 18.34 200.135 18.41 200.578 18.48L203.763 20.23L202.398 23.625L197.148 21.945C196.705 21.945 196.343 22.0383 196.063 22.225C195.806 22.3883 195.678 22.6217 195.678 22.925C195.678 23.415 195.923 23.7883 196.413 24.045C196.903 24.2783 197.615 24.535 198.548 24.815C200.438 25.375 201.826 26.0517 202.713 26.845C203.6 27.6383 204.043 28.805 204.043 30.345C204.043 31.7683 203.483 32.9583 202.363 33.915C201.266 34.8717 199.575 35.35 197.288 35.35ZM213.651 35.35C212.228 35.35 210.945 35.0817 209.801 34.545C208.658 33.985 207.76 33.075 207.106 31.815C206.453 30.555 206.126 28.8633 206.126 26.74C206.126 24.57 206.488 22.8667 207.211 21.63C207.958 20.37 208.95 19.4717 210.186 18.935C211.446 18.3983 212.835 18.13 214.351 18.13C215.425 18.13 216.218 18.1767 216.731 18.27C217.268 18.34 217.723 18.4217 218.096 18.515L220.826 21.595L218.726 24.36L215.051 21.98C213.885 21.98 212.975 22.3883 212.321 23.205C211.668 24.0217 211.341 25.2 211.341 26.74C211.341 28.3733 211.691 29.575 212.391 30.345C213.091 31.115 214.095 31.5 215.401 31.5C216.265 31.5 217.035 31.4067 217.711 31.22C218.411 31.01 218.995 30.7883 219.461 30.555C219.928 30.2983 220.255 30.1117 220.441 29.995V33.985C219.858 34.2883 219.006 34.5917 217.886 34.895C216.79 35.1983 215.378 35.35 213.651 35.35ZM231.159 35.35C229.643 35.35 228.289 35.0817 227.099 34.545C225.909 34.0083 224.976 33.11 224.299 31.85C223.623 30.59 223.284 28.8867 223.284 26.74C223.284 24.6633 223.646 22.995 224.369 21.735C225.093 20.475 226.049 19.565 227.239 19.005C228.429 18.4217 229.736 18.13 231.159 18.13C232.723 18.13 233.948 18.305 234.834 18.655C235.744 19.005 236.433 19.3433 236.899 19.67L238.649 25.235L237.949 27.405H228.149C228.289 28.6417 228.733 29.6333 229.479 30.38C230.226 31.1267 231.369 31.5 232.909 31.5C234.169 31.5 235.184 31.3483 235.954 31.045C236.748 30.7417 237.296 30.5083 237.599 30.345V33.985C236.899 34.3583 236.001 34.685 234.904 34.965C233.831 35.2217 232.583 35.35 231.159 35.35ZM228.114 25.165L233.364 24.465L232.839 21.875C232.676 21.7817 232.443 21.7117 232.139 21.665C231.859 21.6183 231.603 21.595 231.369 21.595C230.319 21.595 229.514 21.9683 228.954 22.715C228.394 23.4383 228.114 24.255 228.114 25.165ZM241.562 35V24.045L240.827 20.545L241.562 18.445H244.922L245.622 19.25C245.622 19.25 245.773 19.1567 246.077 18.97C246.403 18.76 246.858 18.5617 247.442 18.375C248.025 18.1883 248.737 18.095 249.577 18.095C250.043 18.095 250.51 18.13 250.977 18.2C251.443 18.27 251.805 18.3633 252.062 18.48L254.337 20.755L252.412 24.185L247.617 21.77L246.392 22.26V35H241.562ZM257.339 42.525L256.429 42.21L258.179 35L256.079 32.2L258.879 29.505L262.379 32.55L257.339 42.525Z" fill="#FFC700"/>
<path d="M101 88V60.65L100 55.65L101.05 52.65H110.6L120.4 71.65H121.4L129.5 52.65H139.45L139.95 55.65L139.45 60.45V88H130.4L130.55 83.75V69.8H130L128 74.6L123.5 83H117.5L110.6 69.8H110.1V73.85L110.6 88H101ZM161.897 88.5C159.764 88.5 157.681 88.25 155.647 87.75C153.647 87.2167 151.831 86.2833 150.197 84.95C148.597 83.6167 147.314 81.7667 146.347 79.4C145.414 77.0333 144.947 74 144.947 70.3C144.947 66.6 145.414 63.5667 146.347 61.2C147.314 58.8333 148.597 56.9833 150.197 55.65C151.831 54.3167 153.647 53.4 155.647 52.9C157.681 52.3667 159.764 52.1 161.897 52.1C164.031 52.1 166.097 52.3667 168.097 52.9C170.131 53.4333 171.947 54.3667 173.547 55.7C175.181 57.0333 176.464 58.8833 177.397 61.25C178.364 63.6167 178.847 66.6333 178.847 70.3C178.847 73.9667 178.364 76.9833 177.397 79.35C176.464 81.7167 175.181 83.5667 173.547 84.9C171.947 86.2333 170.131 87.1667 168.097 87.7C166.097 88.2333 164.031 88.5 161.897 88.5ZM161.897 80C164.364 80 166.231 79.2667 167.497 77.8C168.764 76.3333 169.397 73.8333 169.397 70.3C169.397 66.7667 168.764 64.2667 167.497 62.8C166.231 61.3333 164.364 60.6 161.897 60.6C159.464 60.6 157.614 61.35 156.347 62.85C155.081 64.35 154.447 66.8333 154.447 70.3C154.447 73.7667 155.081 76.25 156.347 77.75C157.614 79.25 159.464 80 161.897 80ZM191.154 88V60.6L181.154 61.1V52.6H210.404V61.1L200.154 60.6V80L200.704 85L200.154 88H191.154ZM229.671 88.5C227.537 88.5 225.454 88.25 223.421 87.75C221.421 87.2167 219.604 86.2833 217.971 84.95C216.371 83.6167 215.087 81.7667 214.121 79.4C213.187 77.0333 212.721 74 212.721 70.3C212.721 66.6 213.187 63.5667 214.121 61.2C215.087 58.8333 216.371 56.9833 217.971 55.65C219.604 54.3167 221.421 53.4 223.421 52.9C225.454 52.3667 227.537 52.1 229.671 52.1C231.804 52.1 233.871 52.3667 235.871 52.9C237.904 53.4333 239.721 54.3667 241.321 55.7C242.954 57.0333 244.237 58.8833 245.171 61.25C246.137 63.6167 246.621 66.6333 246.621 70.3C246.621 73.9667 246.137 76.9833 245.171 79.35C244.237 81.7167 242.954 83.5667 241.321 84.9C239.721 86.2333 237.904 87.1667 235.871 87.7C233.871 88.2333 231.804 88.5 229.671 88.5ZM229.671 80C232.137 80 234.004 79.2667 235.271 77.8C236.537 76.3333 237.171 73.8333 237.171 70.3C237.171 66.7667 236.537 64.2667 235.271 62.8C234.004 61.3333 232.137 60.6 229.671 60.6C227.237 60.6 225.387 61.35 224.121 62.85C222.854 64.35 222.221 66.8333 222.221 70.3C222.221 73.7667 222.854 76.25 224.121 77.75C225.387 79.25 227.237 80 229.671 80ZM221.421 48.9L226.871 41.9H231.921L237.321 48.9H233.271L229.421 46L225.421 48.9H221.421ZM257.011 74.95L253.111 56.05L258.111 52.05L263.061 56.1L259.011 74.95H257.011ZM258.111 89.45L252.611 83.95L258.111 78.45L263.611 83.95L258.111 89.45Z" fill="#FFC700"/>
<path d="M79.1094 25.75H77.8125V17.9688C77.8125 10.7063 61.7313 5 41.5 5C21.2687 5 5.1875 10.7063 5.1875 17.9688V25.75H3.89062C1.74268 25.75 0 27.4911 0 29.6406V42.6094C0 44.7573 1.74268 46.5 3.89062 46.5H5.1875V72.4375C5.1875 75.302 7.51053 77.625 10.375 77.625V82.8125C10.375 85.677 12.698 88 15.5625 88H20.75C23.6145 88 25.9375 85.677 25.9375 82.8125V77.625H57.0625V82.8125C57.0625 85.677 59.3855 88 62.25 88H67.4375C70.302 88 72.625 85.677 72.625 82.8125V77.625H73.6625C76.2562 77.625 77.8125 75.55 77.8125 73.475V46.5H79.1094C81.2573 46.5 83 44.7573 83 42.6094V29.6406C83 27.4911 81.2573 25.75 79.1094 25.75ZM18.1562 69.8438C15.2918 69.8438 12.9688 67.5207 12.9688 64.6562C12.9688 61.7918 15.2918 59.4688 18.1562 59.4688C21.0207 59.4688 23.3438 61.7918 23.3438 64.6562C23.3438 67.5207 21.0207 69.8438 18.1562 69.8438ZM20.75 51.6875C17.8855 51.6875 15.5625 49.3645 15.5625 46.5V25.75C15.5625 22.8855 17.8855 20.5625 20.75 20.5625H62.25C65.1145 20.5625 67.4375 22.8855 67.4375 25.75V46.5C67.4375 49.3645 65.1145 51.6875 62.25 51.6875H20.75ZM64.8438 69.8438C61.9793 69.8438 59.6562 67.5207 59.6562 64.6562C59.6562 61.7918 61.9793 59.4688 64.8438 59.4688C67.7082 59.4688 70.0312 61.7918 70.0312 64.6562C70.0312 67.5207 67.7082 69.8438 64.8438 69.8438Z" fill="#FFC700"/>
</svg>
