<svg width="228" height="30" viewBox="0 0 228 30" fill="none" xmlns="http://www.w3.org/2000/svg">
<path d="M6.72 23L1.32 6.53L0.42 3.56V1.76H4.86L9.09 18.44H9.69L13.86 1.76H18.24V3.56L17.34 6.53L11.97 23H6.72ZM22.575 23.3C21.235 23.3 20.095 22.96 19.155 22.28C18.235 21.58 17.775 20.5 17.775 19.04C17.775 17.5 18.265 16.33 19.245 15.53C20.225 14.71 21.535 14.3 23.175 14.3C24.375 14.3 25.285 14.4 25.905 14.6C26.545 14.8 26.965 14.95 27.165 15.05L27.375 14.87C27.375 14.27 27.325 13.74 27.225 13.28C27.125 12.82 26.895 12.47 26.535 12.23C26.175 11.97 25.615 11.84 24.855 11.84C23.495 11.84 22.275 11.95 21.195 12.17C20.135 12.39 19.295 12.59 18.675 12.77V9.47C19.295 9.25 20.235 9.05 21.495 8.87C22.755 8.67 24.115 8.57 25.575 8.57C26.815 8.57 27.825 8.74 28.605 9.08C29.405 9.4 30.015 9.84 30.435 10.4C30.875 10.96 31.175 11.58 31.335 12.26C31.515 12.92 31.605 13.58 31.605 14.24V18.23L32.205 21.26L31.605 23.03H27.675V21.56L27.375 21.41C27.215 21.61 26.935 21.86 26.535 22.16C26.155 22.46 25.635 22.73 24.975 22.97C24.335 23.19 23.535 23.3 22.575 23.3ZM24.225 19.97C25.085 19.97 25.755 19.89 26.235 19.73C26.735 19.57 27.115 19.41 27.375 19.25V18.68C27.375 18.3 27.145 17.92 26.685 17.54C26.245 17.16 25.515 16.97 24.495 16.97C23.735 16.97 23.175 17.12 22.815 17.42C22.455 17.72 22.275 18.1 22.275 18.56C22.275 19.04 22.445 19.4 22.785 19.64C23.125 19.86 23.605 19.97 24.225 19.97ZM37.1813 7.34L33.9713 4.13L37.1813 0.919998L40.3613 4.13L37.1813 7.34ZM35.0813 23V13.07L34.4513 10.67L35.0513 8.84H39.2513V23H35.0813ZM54.5883 23.3C53.6483 23.3 52.7383 23.06 51.8583 22.58C50.9983 22.1 50.2883 21.34 49.7283 20.3C49.1683 19.26 48.8883 17.9 48.8883 16.22C48.8883 14.36 49.1883 12.87 49.7883 11.75C50.3883 10.63 51.1483 9.82 52.0683 9.32C53.0083 8.8 53.9483 8.54 54.8883 8.54C55.8883 8.54 56.6683 8.63 57.2283 8.81C57.7883 8.97 58.2083 9.12 58.4883 9.26L58.1883 3.59L58.4883 1.79H62.7183V18.2L63.3183 21.2L62.7183 23.03H58.7883V21.56L58.4883 21.41C58.4883 21.41 58.3383 21.57 58.0383 21.89C57.7383 22.19 57.2983 22.5 56.7183 22.82C56.1383 23.14 55.4283 23.3 54.5883 23.3ZM56.2383 19.97L58.4883 19.55V13.37C58.4883 12.91 58.2983 12.55 57.9183 12.29C57.5383 12.01 56.9783 11.87 56.2383 11.87C55.4783 11.87 54.8883 12.06 54.4683 12.44C54.0683 12.8 53.7883 13.29 53.6283 13.91C53.4683 14.51 53.3883 15.18 53.3883 15.92C53.3883 17.02 53.6083 17.97 54.0483 18.77C54.4883 19.57 55.2183 19.97 56.2383 19.97ZM72.4547 23.3C71.1547 23.3 69.9947 23.07 68.9747 22.61C67.9547 22.15 67.1547 21.38 66.5747 20.3C65.9947 19.22 65.7047 17.76 65.7047 15.92C65.7047 14.14 66.0147 12.71 66.6347 11.63C67.2547 10.55 68.0747 9.77 69.0947 9.29C70.1147 8.79 71.2347 8.54 72.4547 8.54C73.7947 8.54 74.8447 8.69 75.6047 8.99C76.3847 9.29 76.9747 9.58 77.3747 9.86L78.8747 14.63L78.2747 16.49H69.8747C69.9947 17.55 70.3747 18.4 71.0147 19.04C71.6547 19.68 72.6347 20 73.9547 20C75.0347 20 75.9047 19.87 76.5647 19.61C77.2447 19.35 77.7147 19.15 77.9747 19.01V22.13C77.3747 22.45 76.6047 22.73 75.6647 22.97C74.7447 23.19 73.6747 23.3 72.4547 23.3ZM69.8447 14.57L74.3447 13.97L73.8947 11.75C73.7547 11.67 73.5547 11.61 73.2947 11.57C73.0547 11.53 72.8347 11.51 72.6347 11.51C71.7347 11.51 71.0447 11.83 70.5647 12.47C70.0847 13.09 69.8447 13.79 69.8447 14.57ZM85.961 23.3C84.681 23.3 83.611 23.19 82.751 22.97C81.911 22.75 81.231 22.5 80.711 22.22V18.68C81.431 19.06 82.251 19.39 83.171 19.67C84.111 19.93 85.011 20.06 85.871 20.06C86.891 20.06 87.401 19.73 87.401 19.07C87.401 18.71 87.251 18.44 86.951 18.26C86.671 18.08 86.271 17.92 85.751 17.78C85.251 17.62 84.671 17.43 84.011 17.21C82.871 16.81 81.991 16.3 81.371 15.68C80.751 15.06 80.441 14.09 80.441 12.77C80.441 11.35 80.931 10.29 81.911 9.59C82.911 8.89 84.221 8.54 85.841 8.54C86.501 8.54 87.061 8.58 87.521 8.66C87.981 8.72 88.401 8.78 88.781 8.84L91.511 10.34L90.341 13.25L85.841 11.81C85.461 11.81 85.151 11.89 84.911 12.05C84.691 12.19 84.581 12.39 84.581 12.65C84.581 13.07 84.791 13.39 85.211 13.61C85.631 13.81 86.241 14.03 87.041 14.27C88.661 14.75 89.851 15.33 90.611 16.01C91.371 16.69 91.751 17.69 91.751 19.01C91.751 20.23 91.271 21.25 90.311 22.07C89.371 22.89 87.921 23.3 85.961 23.3ZM99.9867 23.3C98.7667 23.3 97.6667 23.07 96.6867 22.61C95.7067 22.13 94.9367 21.35 94.3767 20.27C93.8167 19.19 93.5367 17.74 93.5367 15.92C93.5367 14.06 93.8467 12.6 94.4667 11.54C95.1067 10.46 95.9567 9.69 97.0167 9.23C98.0967 8.77 99.2867 8.54 100.587 8.54C101.507 8.54 102.187 8.58 102.627 8.66C103.087 8.72 103.477 8.79 103.797 8.87L106.137 11.51L104.337 13.88L101.187 11.84C100.187 11.84 99.4067 12.19 98.8467 12.89C98.2867 13.59 98.0067 14.6 98.0067 15.92C98.0067 17.32 98.3067 18.35 98.9067 19.01C99.5067 19.67 100.367 20 101.487 20C102.227 20 102.887 19.92 103.467 19.76C104.067 19.58 104.567 19.39 104.967 19.19C105.367 18.97 105.647 18.81 105.807 18.71V22.13C105.307 22.39 104.577 22.65 103.617 22.91C102.677 23.17 101.467 23.3 99.9867 23.3ZM114.994 23.3C113.694 23.3 112.534 23.07 111.514 22.61C110.494 22.15 109.694 21.38 109.114 20.3C108.534 19.22 108.244 17.76 108.244 15.92C108.244 14.14 108.554 12.71 109.174 11.63C109.794 10.55 110.614 9.77 111.634 9.29C112.654 8.79 113.774 8.54 114.994 8.54C116.334 8.54 117.384 8.69 118.144 8.99C118.924 9.29 119.514 9.58 119.914 9.86L121.414 14.63L120.814 16.49H112.414C112.534 17.55 112.914 18.4 113.554 19.04C114.194 19.68 115.174 20 116.494 20C117.574 20 118.444 19.87 119.104 19.61C119.784 19.35 120.254 19.15 120.514 19.01V22.13C119.914 22.45 119.144 22.73 118.204 22.97C117.284 23.19 116.214 23.3 114.994 23.3ZM112.384 14.57L116.884 13.97L116.434 11.75C116.294 11.67 116.094 11.61 115.834 11.57C115.594 11.53 115.374 11.51 115.174 11.51C114.274 11.51 113.584 11.83 113.104 12.47C112.624 13.09 112.384 13.79 112.384 14.57ZM123.91 23V13.61L123.28 10.61L123.91 8.81H126.79L127.39 9.5C127.39 9.5 127.52 9.42 127.78 9.26C128.06 9.08 128.45 8.91 128.95 8.75C129.45 8.59 130.06 8.51 130.78 8.51C131.18 8.51 131.58 8.54 131.98 8.6C132.38 8.66 132.69 8.74 132.91 8.84L134.86 10.79L133.21 13.73L129.1 11.66L128.05 12.08V23H123.91ZM137.434 29.45L136.654 29.18L138.154 23L136.354 20.6L138.754 18.29L141.754 20.9L137.434 29.45ZM151.669 10.67L152.599 8.84H155.869V10.13L156.139 10.31C156.359 10.11 156.659 9.88 157.039 9.62C157.439 9.34 157.919 9.09 158.479 8.87C159.039 8.65 159.669 8.54 160.369 8.54C162.449 8.54 163.939 9.23 164.839 10.61C165.179 10.11 165.709 9.64 166.429 9.2C167.169 8.74 168.189 8.51 169.489 8.51C171.289 8.51 172.639 9.02 173.539 10.04C174.439 11.06 174.889 12.49 174.889 14.33V18.17L175.519 21.17L174.889 23H170.719V14.21C170.719 13.45 170.509 12.87 170.089 12.47C169.689 12.05 169.109 11.84 168.349 11.84C167.569 11.84 166.939 12.06 166.459 12.5C165.999 12.94 165.769 13.52 165.769 14.24V14.36V23H161.569V14.24C161.569 13.48 161.399 12.9 161.059 12.5C160.739 12.08 160.229 11.87 159.529 11.87L156.469 12.44V23H152.269V13.97L151.669 10.67ZM184.582 23.3C182.142 23.3 180.352 22.66 179.212 21.38C178.072 20.1 177.502 18.28 177.502 15.92C177.502 13.54 178.072 11.72 179.212 10.46C180.352 9.18 182.142 8.54 184.582 8.54C187.102 8.54 188.902 9.18 189.982 10.46C191.082 11.72 191.632 13.54 191.632 15.92C191.632 18.28 191.082 20.1 189.982 21.38C188.902 22.66 187.102 23.3 184.582 23.3ZM184.582 20.3C185.402 20.3 186.072 19.98 186.592 19.34C187.132 18.7 187.402 17.56 187.402 15.92C187.402 14.28 187.132 13.14 186.592 12.5C186.072 11.86 185.402 11.54 184.582 11.54C183.742 11.54 183.052 11.86 182.512 12.5C181.992 13.14 181.732 14.28 181.732 15.92C181.732 17.56 182.002 18.7 182.542 19.34C183.082 19.98 183.762 20.3 184.582 20.3ZM198.629 23.3C197.269 23.3 196.279 23 195.659 22.4C195.039 21.8 194.729 20.89 194.729 19.67V11.63H192.839V9.68L194.429 8.21L196.559 4.49H198.899V8.84H202.799V11.84H198.899V20.06L202.799 20.03V22.4C202.799 22.4 202.639 22.48 202.319 22.64C201.999 22.78 201.529 22.92 200.909 23.06C200.309 23.22 199.549 23.3 198.629 23.3ZM211.388 23.3C208.948 23.3 207.158 22.66 206.018 21.38C204.878 20.1 204.308 18.28 204.308 15.92C204.308 13.54 204.878 11.72 206.018 10.46C207.158 9.18 208.948 8.54 211.388 8.54C213.908 8.54 215.708 9.18 216.788 10.46C217.888 11.72 218.438 13.54 218.438 15.92C218.438 18.28 217.888 20.1 216.788 21.38C215.708 22.66 213.908 23.3 211.388 23.3ZM211.388 20.3C212.208 20.3 212.878 19.98 213.398 19.34C213.938 18.7 214.208 17.56 214.208 15.92C214.208 14.28 213.938 13.14 213.398 12.5C212.878 11.86 212.208 11.54 211.388 11.54C210.548 11.54 209.858 11.86 209.318 12.5C208.798 13.14 208.538 14.28 208.538 15.92C208.538 17.56 208.808 18.7 209.348 19.34C209.888 19.98 210.568 20.3 211.388 20.3ZM206.438 6.8L210.338 2.6H212.138L215.978 6.8H214.178L211.238 4.46L208.238 6.8H206.438ZM223.786 15.2L221.746 3.86L224.146 1.46L226.516 3.89L224.386 15.2H223.786ZM224.446 23.3L221.746 20.6L224.446 17.9L227.146 20.6L224.446 23.3Z" fill="#FFC700"/>
</svg>
